# xmcd
#
# Track frame offsets: 
#        150
#        18535
#        35687
#        54927
#        72605
#        97627
#        118807
#        136762
#        158012
#        179372
#        199902
#
# Disc length: 2852 seconds
#
# Revision: 0
# Processed by: cddbd v1.5.2PL0 Copyright (c) Steve Scherf et al.
# Submitted via: ExactAudioCopyFreeDBPlugin 1.0
#
DISCID=920b220b
DTITLE=Various Artist - Malaco Blues - Europe '93
DYEAR=1993
DGENRE=Blues
TTITLE0=Little Milton - It's hard to explain
TTITLE1=Little Milton - Movin' to the country
TTITLE2=Little Milton - The Blues is alright
TTITLE3=Little Milton - Cafe Woman
TTITLE4=Latimore - Ain't nothing You can do
TTITLE5=Latimore - If I wasn't a gentleman
TTITLE6=Latimore - I need a good woman bad
TTITLE7=Denise LaSalle - A real sad story
TTITLE8=Denise LaSalle - Don't mess with my man
TTITLE9=Denise LaSalle - Holding hands with the blues
TTITLE10=Mike Griffin - Delta moon
EXTD=
EXTT0=
EXTT1=
EXTT2=
EXTT3=
EXTT4=
EXTT5=
EXTT6=
EXTT7=
EXTT8=
EXTT9=
EXTT10=
PLAYORDER=
